<svg width="24" height="24" viewBox="0 0 24 24" fill="none" xmlns="http://www.w3.org/2000/svg">
<path d="M19.5 3.3525H18.3825V2.625C18.3825 2.01 17.88 1.5 17.2575 1.5C16.635 1.5 16.1325 2.01 16.1325 2.625V3.3525H13.125V2.625C13.125 2.01 12.6225 1.5 12 1.5C11.3775 1.5 10.875 2.01 10.875 2.625V3.3525H7.8675V2.625C7.8675 2.01 7.365 1.5 6.7425 1.5C6.12 1.5 5.6175 2.01 5.6175 2.625V3.3525H4.5C2.2275 3.3525 0.375 5.1975 0.375 7.4775V18.375C0.375 20.6475 2.2275 22.5 4.5 22.5H19.5C21.7725 22.5 23.625 20.6475 23.625 18.375V7.4775C23.625 5.1975 21.7725 3.3525 19.5 3.3525ZM21.375 8.715H2.625V7.4775C2.625 6.98022 2.82254 6.50331 3.17417 6.15168C3.52581 5.80004 4.00272 5.6025 4.5 5.6025H5.6175V6.285C5.6175 6.9075 6.12 7.41 6.7425 7.41C7.365 7.41 7.8675 6.9075 7.8675 6.285V5.6025H10.875V6.285C10.875 6.9075 11.3775 7.41 12 7.41C12.6225 7.41 13.125 6.9075 13.125 6.285V5.6025H16.1325V6.285C16.1325 6.9075 16.635 7.41 17.2575 7.41C17.88 7.41 18.3825 6.9075 18.3825 6.285V5.6025H19.5C19.9973 5.6025 20.4742 5.80004 20.8258 6.15168C21.1775 6.50331 21.375 6.98022 21.375 7.4775V8.715Z" fill="#C5A88C"/>
</svg>
