<svg width="24" height="24" viewBox="0 0 24 24" fill="none" xmlns="http://www.w3.org/2000/svg">
<path d="M17.657 5.30475C14.533 2.23175 9.46802 2.23175 6.34402 5.30475C5.6023 6.02938 5.01293 6.89498 4.61053 7.85066C4.20814 8.80634 4.00085 9.83281 4.00085 10.8698C4.00085 11.9067 4.20814 12.9332 4.61053 13.8888C5.01293 14.8445 5.6023 15.7101 6.34402 16.4347L12 21.9998L17.657 16.4347C18.3987 15.7101 18.9881 14.8445 19.3905 13.8888C19.7929 12.9332 20.0002 11.9067 20.0002 10.8698C20.0002 9.83281 19.7929 8.80634 19.3905 7.85066C18.9881 6.89498 18.3987 6.02938 17.657 5.30475ZM12 13.4998C11.332 13.4998 10.705 13.2397 10.232 12.7677C9.76377 12.2985 9.50079 11.6627 9.50079 10.9997C9.50079 10.3368 9.76377 9.701 10.232 9.23175C10.704 8.75975 11.332 8.49975 12 8.49975C12.668 8.49975 13.296 8.75975 13.768 9.23175C14.2363 9.701 14.4992 10.3368 14.4992 10.9997C14.4992 11.6627 14.2363 12.2985 13.768 12.7677C13.296 13.2397 12.668 13.4998 12 13.4998Z" fill="white"/>
</svg>
